<?xml version="1.0" encoding="UTF-8"?>
<svg version="1.1" xmlns="http://www.w3.org/2000/svg" width="500" height="500">
<path d="M0 0 C0.81033691 0.15065918 1.62067383 0.30131836 2.45556641 0.45654297 C39.58152865 7.5570623 71.7685666 25.62271743 98.5 52.1875 C99.47996948 53.15925171 99.47996948 53.15925171 100.47973633 54.15063477 C105 58.74195828 105 58.74195828 105 61 C105.66 61 106.32 61 107 61 C108.40112305 62.55371094 108.40112305 62.55371094 110.01171875 64.734375 C110.89609619 65.92764404 110.89609619 65.92764404 111.79833984 67.14501953 C112.4217627 68.00466309 113.04518555 68.86430664 113.6875 69.75 C114.32381348 70.62382324 114.96012695 71.49764648 115.61572266 72.39794922 C120.1739569 78.72149091 124.43111756 85.05754709 128 92 C128.31098633 92.60424805 128.62197266 93.20849609 128.94238281 93.83105469 C145.91254052 127.22607779 152.86894872 164.77329846 147.30322266 201.95410156 C147.00529308 203.96428662 146.74260194 205.97706949 146.48046875 207.9921875 C142.30774378 237.42893016 128.7554523 264.2340754 110.84765625 287.57421875 C109.50419734 289.33804112 108.22987819 291.15518271 107 293 C106.34 293 105.68 293 105 293 C104.5973291 293.88836548 104.5973291 293.88836548 104.18652344 294.79467773 C89.57157989 321.95862528 48.7899249 340.15354777 21.12109375 348.7890625 C15.47460857 350.48209502 9.79244344 351.90304766 4 353 C3.23872803 353.16701416 2.47745605 353.33402832 1.69311523 353.50610352 C-8.52788816 355.52926549 -18.80924265 355.44087944 -29.1875 355.4375 C-30.65523361 355.43860275 -30.65523361 355.43860275 -32.15261841 355.43972778 C-47.65488598 355.40913256 -62.04692148 354.40702057 -77 350 C-77.9060498 349.74299316 -78.81209961 349.48598633 -79.74560547 349.22119141 C-102.33472358 342.68867349 -121.99208344 332.10485614 -140.57421875 317.84765625 C-142.33804112 316.50419734 -144.15518271 315.22987819 -146 314 C-146 313.34 -146 312.68 -146 312 C-146.87591797 311.60868896 -146.87591797 311.60868896 -147.76953125 311.20947266 C-176.6350058 295.55715644 -194.17818769 253.10912838 -203.21044922 223.66992188 C-204.83917904 218.16225666 -206.10604567 212.67963466 -207 207 C-207.20238281 205.77667969 -207.40476562 204.55335938 -207.61328125 203.29296875 C-210.6086835 183.26198663 -209.7302196 162.84894868 -206 143 C-205.86078125 142.2275293 -205.7215625 141.45505859 -205.578125 140.65917969 C-200.06794772 110.72310083 -185.78801976 82.24928758 -165.3984375 59.6875 C-162.93289265 57.05117682 -162.93289265 57.05117682 -161 54 C-160.34 54 -159.68 54 -159 54 C-159 53.34 -159 52.68 -159 52 C-158.34 52 -157.68 52 -157 52 C-157 51.34 -157 50.68 -157 50 C-156.34 50 -155.68 50 -155 50 C-154.67 49.01 -154.34 48.02 -154 47 C-151.84765625 45.01953125 -151.84765625 45.01953125 -149.0625 42.8125 C-148.05960938 42.01457031 -147.05671875 41.21664062 -146.0234375 40.39453125 C-145.02570313 39.60433594 -144.02796875 38.81414062 -143 38 C-142.18789062 37.32324219 -141.37578125 36.64648438 -140.5390625 35.94921875 C-117.20828701 16.61025368 -88.57655779 5.49545054 -59 0 C-57.8553125 -0.22558594 -56.710625 -0.45117188 -55.53125 -0.68359375 C-37.66130995 -3.65508607 -17.78535844 -3.42106847 0 0 Z " fill="#080807" transform="translate(276,76)"/>
<path d="M0 0 C2.13041321 0.79351285 4.26634007 1.57230967 6.40625 2.33984375 C7.55303223 2.76144775 8.69981445 3.18305176 9.88134766 3.61743164 C30.09616034 10.99170584 47.16630766 14.61023091 68.76953125 14.8581543 C71 15 71 15 72 16 C72.12172295 18.51088878 72.17860974 20.99475632 72.19287109 23.50708008 C72.20513733 24.68806023 72.20513733 24.68806023 72.21765137 25.89289856 C72.24260155 28.5184351 72.25906561 31.14391632 72.2734375 33.76953125 C72.27876118 34.67038641 72.28408485 35.57124157 72.28956985 36.49939537 C72.31637112 41.2880811 72.33570429 46.07674042 72.35009766 50.86547852 C72.36331648 54.79638572 72.39093079 58.72675885 72.43212891 62.6574707 C72.48208766 67.42442406 72.50629804 72.19090123 72.51332474 76.95810509 C72.5199485 78.75862506 72.53493119 80.55913823 72.55921555 82.35950661 C72.85139435 105.3762989 67.61086779 128.00339398 51.14453125 144.96020508 C49.77505561 146.3190408 48.38778259 147.6598666 47 149 C46.23300781 149.79792969 45.46601563 150.59585938 44.67578125 151.41796875 C29.6840612 166.20606611 9.14361822 172.3916708 -11.44213867 172.37255859 C-19.16535224 172.20606322 -25.75434568 170.78467625 -33 168 C-33.92683594 167.649375 -34.85367188 167.29875 -35.80859375 166.9375 C-57.08224774 158.04517438 -73.88536802 142.24149988 -82.6875 120.8125 C-87.62813031 106.9608295 -88.43550321 93.96034652 -88.328125 79.4140625 C-88.32505938 77.57701778 -88.32318937 75.73997071 -88.32244873 73.90292358 C-88.3178868 70.08916058 -88.30360765 66.27561361 -88.28125 62.46191406 C-88.25268793 57.56475129 -88.24200594 52.66775556 -88.2375679 47.77051735 C-88.23342619 43.99429653 -88.22362381 40.21810958 -88.21169281 36.44190598 C-88.20598862 34.63411097 -88.2012304 32.82631273 -88.19742584 31.01851273 C-88.19059333 28.51049198 -88.17698299 26.00260678 -88.16113281 23.49462891 C-88.16001495 22.74567856 -88.15889709 21.99672821 -88.15774536 21.2250824 C-88.11471017 16.11471017 -88.11471017 16.11471017 -87 15 C-85.4810966 14.87845762 -83.95703202 14.82030223 -82.43359375 14.7890625 C-81.48105713 14.76295898 -80.52852051 14.73685547 -79.54711914 14.70996094 C-78.00785767 14.66790527 -78.00785767 14.66790527 -76.4375 14.625 C-58.8511253 13.98032427 -42.42062014 10.45169907 -26.1953125 3.5703125 C-25.18154541 3.14766113 -24.16777832 2.72500977 -23.12329102 2.28955078 C-21.12301067 1.44680684 -19.13309747 0.57889985 -17.15600586 -0.31689453 C-10.20262658 -3.24622392 -6.75538738 -3.07301262 0 0 Z " fill="#A3A3A3" transform="translate(254,174)"/>
<path d="M0 0 C0.81033691 0.15065918 1.62067383 0.30131836 2.45556641 0.45654297 C39.58152865 7.5570623 71.7685666 25.62271743 98.5 52.1875 C99.47996948 53.15925171 99.47996948 53.15925171 100.47973633 54.15063477 C105 58.74195828 105 58.74195828 105 61 C105.66 61 106.32 61 107 61 C108.40112305 62.55371094 108.40112305 62.55371094 110.01171875 64.734375 C110.89609619 65.92764404 110.89609619 65.92764404 111.79833984 67.14501953 C112.4217627 68.00466309 113.04518555 68.86430664 113.6875 69.75 C114.32381348 70.62382324 114.96012695 71.49764648 115.61572266 72.39794922 C120.1739569 78.72149091 124.43111756 85.05754709 128 92 C128.31098633 92.60424805 128.62197266 93.20849609 128.94238281 93.83105469 C145.91254052 127.22607779 152.86894872 164.77329846 147.30322266 201.95410156 C147.00529308 203.96428662 146.74260194 205.97706949 146.48046875 207.9921875 C142.30774378 237.42893016 128.7554523 264.2340754 110.84765625 287.57421875 C109.50419734 289.33804112 108.22987819 291.15518271 107 293 C106.34 293 105.68 293 105 293 C104.5973291 293.88836548 104.5973291 293.88836548 104.18652344 294.79467773 C89.57157989 321.95862528 48.7899249 340.15354777 21.12109375 348.7890625 C15.47460857 350.48209502 9.79244344 351.90304766 4 353 C3.23872803 353.16701416 2.47745605 353.33402832 1.69311523 353.50610352 C-8.52788816 355.52926549 -18.80924265 355.44087944 -29.1875 355.4375 C-30.65523361 355.43860275 -30.65523361 355.43860275 -32.15261841 355.43972778 C-47.65488598 355.40913256 -62.04692148 354.40702057 -77 350 C-77.9060498 349.74299316 -78.81209961 349.48598633 -79.74560547 349.22119141 C-102.33472358 342.68867349 -121.99208344 332.10485614 -140.57421875 317.84765625 C-142.33804112 316.50419734 -144.15518271 315.22987819 -146 314 C-146 313.34 -146 312.68 -146 312 C-146.87591797 311.60868896 -146.87591797 311.60868896 -147.76953125 311.20947266 C-176.6350058 295.55715644 -194.17818769 253.10912838 -203.21044922 223.66992188 C-204.83917904 218.16225666 -206.10604567 212.67963466 -207 207 C-207.20238281 205.77667969 -207.40476562 204.55335938 -207.61328125 203.29296875 C-210.6086835 183.26198663 -209.7302196 162.84894868 -206 143 C-205.86078125 142.2275293 -205.7215625 141.45505859 -205.578125 140.65917969 C-200.06794772 110.72310083 -185.78801976 82.24928758 -165.3984375 59.6875 C-162.93289265 57.05117682 -162.93289265 57.05117682 -161 54 C-160.34 54 -159.68 54 -159 54 C-159 53.34 -159 52.68 -159 52 C-158.34 52 -157.68 52 -157 52 C-157 51.34 -157 50.68 -157 50 C-156.34 50 -155.68 50 -155 50 C-154.67 49.01 -154.34 48.02 -154 47 C-151.84765625 45.01953125 -151.84765625 45.01953125 -149.0625 42.8125 C-148.05960938 42.01457031 -147.05671875 41.21664062 -146.0234375 40.39453125 C-145.02570313 39.60433594 -144.02796875 38.81414062 -143 38 C-142.18789062 37.32324219 -141.37578125 36.64648438 -140.5390625 35.94921875 C-117.20828701 16.61025368 -88.57655779 5.49545054 -59 0 C-57.8553125 -0.22558594 -56.710625 -0.45117188 -55.53125 -0.68359375 C-37.66130995 -3.65508607 -17.78535844 -3.42106847 0 0 Z M-142 45 C-142.97066406 45.85078125 -143.94132812 46.7015625 -144.94140625 47.578125 C-177.05445626 76.06874475 -200.02751155 117.3456377 -202.88720703 160.73339844 C-204.11515073 185.40921946 -201.7401224 208.51189273 -194 232 C-193.77473633 232.70141113 -193.54947266 233.40282227 -193.31738281 234.12548828 C-179.98033341 275.02377953 -149.08488861 310.42155474 -111.01635742 330.23608398 C-76.76558543 347.45892647 -39.99198677 354.00452934 -2 348 C-1.26426758 347.8870459 -0.52853516 347.7740918 0.22949219 347.65771484 C43.79035291 340.63571162 83.57613679 314.70730515 109.6328125 279.47265625 C126.91659157 255.53769202 137.91106295 228.2453776 142 199 C142.14953125 197.9584375 142.2990625 196.916875 142.453125 195.84375 C142.77611995 192.88579627 142.91351718 189.97500917 143 187 C143.03109863 186.23623047 143.06219727 185.47246094 143.09423828 184.68554688 C143.94688705 161.80542422 140.69217139 139.57900561 133 118 C132.74379883 117.27554688 132.48759766 116.55109375 132.22363281 115.8046875 C126.19550997 99.16495068 117.18399008 83.69660947 106 70 C105.566875 69.46681152 105.13375 68.93362305 104.6875 68.38427734 C94.91640464 56.40982774 84.42852534 46.19347757 72 37 C71.43071777 36.5757373 70.86143555 36.15147461 70.27490234 35.71435547 C8.05619764 -9.99843963 -84.303954 -6.56195174 -142 45 Z " fill="#E8F812" transform="translate(276,76)"/>
<path d="M0 0 C13.13003269 4.62486628 25.65114479 8.42946943 39.53515625 9.78515625 C40.40724731 9.87349731 41.27933838 9.96183838 42.17785645 10.05285645 C44.30572032 10.26790264 46.43406364 10.47819597 48.5625 10.6875 C48.71081992 16.88042699 48.8197042 23.07232069 48.89208984 29.26660156 C48.92226335 31.37355557 48.9632083 33.48038396 49.01513672 35.58691406 C49.08792673 38.61554934 49.12195024 41.6425247 49.1484375 44.671875 C49.17940521 45.61367615 49.21037292 46.55547729 49.24227905 47.52581787 C49.24357997 50.05371211 49.18922474 52.23806949 48.5625 54.6875 C44.12739401 58.6875 44.12739401 58.6875 40.5625 58.6875 C39.94375 57.883125 39.325 57.07875 38.6875 56.25 C36.53709015 53.65685871 35.80855542 53.03529165 32.5625 52.6875 C33.0575 55.1625 33.0575 55.1625 33.5625 57.6875 C32.5725 58.1825 32.5725 58.1825 31.5625 58.6875 C31.57410156 59.46996094 31.58570313 60.25242187 31.59765625 61.05859375 C31.60667969 62.07050781 31.61570312 63.08242187 31.625 64.125 C31.63660156 65.13433594 31.64820313 66.14367187 31.66015625 67.18359375 C31.5625 69.6875 31.5625 69.6875 30.5625 70.6875 C30.5714898 72.98439517 30.69515461 75.26525939 30.8203125 77.55859375 C30.73523438 78.26113281 30.65015625 78.96367187 30.5625 79.6875 C29.5725 80.3475 28.5825 81.0075 27.5625 81.6875 C26.80842899 83.99407014 26.151062 86.333252 25.5625 88.6875 C24.6875 92.0625 24.6875 92.0625 23.5625 94.6875 C22.6034375 94.9040625 22.6034375 94.9040625 21.625 95.125 C20.944375 95.310625 20.26375 95.49625 19.5625 95.6875 C19.0675 96.8425 18.5725 97.9975 18.0625 99.1875 C17.5675 100.3425 17.0725 101.4975 16.5625 102.6875 C14.5 103.3125 14.5 103.3125 12.5625 103.6875 C11.26589566 106.17784386 11.26589566 106.17784386 10.5625 108.6875 C9.9025 108.6875 9.2425 108.6875 8.5625 108.6875 C8.1603125 107.7284375 8.1603125 107.7284375 7.75 106.75 C6.67582248 104.35618314 6.67582248 104.35618314 3.5625 103.6875 C3.5625 92.4675 3.5625 81.2475 3.5625 69.6875 C4.5525 69.3575 5.5425 69.0275 6.5625 68.6875 C7.0575 67.2025 7.0575 67.2025 7.5625 65.6875 C9.5234375 64.9140625 9.5234375 64.9140625 11.9375 64.3125 C14.90712722 63.37770479 16.35994498 62.88391699 18.625 60.6875 C20.08880154 56.00333507 20.36459808 51.53654749 19.5625 46.6875 C17.37395577 43.57888486 17.37395577 43.57888486 14.5625 41.6875 C12.5625 39.6875 12.5625 39.6875 12.4375 36.0625 C12.47875 34.94875 12.52 33.835 12.5625 32.6875 C25.99107143 26.6875 25.99107143 26.6875 31.5625 26.6875 C31.5625 25.0375 31.5625 23.3875 31.5625 21.6875 C30.34304688 21.44773438 29.12359375 21.20796875 27.8671875 20.9609375 C21.63825063 19.57483461 15.69601943 17.43805716 9.6875 15.3125 C8.58019531 14.92578125 7.47289062 14.5390625 6.33203125 14.140625 C-2.31417207 11.11292983 -2.31417207 11.11292983 -6.56079102 9.50463867 C-7.52944092 9.13830322 -8.49809082 8.77196777 -9.49609375 8.39453125 C-10.35001709 8.06428955 -11.20394043 7.73404785 -12.08374023 7.39379883 C-17.11105607 5.88523906 -21.40665144 7.22549524 -26.19384766 9.07739258 C-30.15491613 10.58746077 -34.14138251 12.0039721 -38.1484375 13.38671875 C-38.84264801 13.6266304 -39.53685852 13.86654205 -40.25210571 14.11372375 C-41.70220404 14.61426318 -43.15251328 15.114192 -44.60302734 15.61352539 C-46.82884577 16.38063342 -49.05308806 17.15220241 -51.27734375 17.92382812 C-52.6926138 18.41173264 -54.10797509 18.89937258 -55.5234375 19.38671875 C-56.5202504 19.73351936 -56.5202504 19.73351936 -57.53720093 20.08732605 C-62.208945 21.6875 -62.208945 21.6875 -64.4375 21.6875 C-64.4375 23.3375 -64.4375 24.9875 -64.4375 26.6875 C-62.4575 27.3475 -60.4775 28.0075 -58.4375 28.6875 C-58.39508277 31.02044775 -58.39657063 33.35452567 -58.4375 35.6875 C-58.7675 36.0175 -59.0975 36.3475 -59.4375 36.6875 C-59.67277773 39.03737262 -59.85136417 41.39306039 -60 43.75 C-60.08378906 45.04035156 -60.16757813 46.33070313 -60.25390625 47.66015625 C-60.34478516 49.15869141 -60.34478516 49.15869141 -60.4375 50.6875 C-59.81875 50.501875 -59.2 50.31625 -58.5625 50.125 C-56.4375 49.6875 -56.4375 49.6875 -54.4375 50.6875 C-53.69140625 52.61328125 -53.69140625 52.61328125 -53 55 C-51.55615386 59.84858206 -51.55615386 59.84858206 -48.4375 63.6875 C-47.07562324 64.08918486 -45.69786761 64.43884792 -44.3125 64.75 C-42.394375 65.2140625 -42.394375 65.2140625 -40.4375 65.6875 C-40.1075 66.6775 -39.7775 67.6675 -39.4375 68.6875 C-38.4475 69.0175 -37.4575 69.3475 -36.4375 69.6875 C-36.4375 80.9075 -36.4375 92.1275 -36.4375 103.6875 C-37.4275 104.0175 -38.4175 104.3475 -39.4375 104.6875 C-40.17073796 106.70258358 -40.17073796 106.70258358 -40.4375 108.6875 C-41.4275 108.6875 -42.4175 108.6875 -43.4375 108.6875 C-43.911875 107.883125 -44.38625 107.07875 -44.875 106.25 C-45.390625 105.404375 -45.90625 104.55875 -46.4375 103.6875 C-47.118125 103.543125 -47.79875 103.39875 -48.5 103.25 C-49.4590625 102.9715625 -49.4590625 102.9715625 -50.4375 102.6875 C-51.11689174 100.69178677 -51.78311559 98.69155227 -52.4375 96.6875 C-53.0975 96.3575 -53.7575 96.0275 -54.4375 95.6875 C-56.4375 94.6875 -56.4375 94.6875 -57.5625 91.625 C-57.85125 90.655625 -58.14 89.68625 -58.4375 88.6875 C-59.0975 88.3575 -59.7575 88.0275 -60.4375 87.6875 C-60.9375 84.1875 -60.9375 84.1875 -61.4375 80.6875 C-62.0975 80.3575 -62.7575 80.0275 -63.4375 79.6875 C-63.4375 76.7175 -63.4375 73.7475 -63.4375 70.6875 C-64.0975 70.3575 -64.7575 70.0275 -65.4375 69.6875 C-65.2725 69.171875 -65.1075 68.65625 -64.9375 68.125 C-64.27815094 64.91067332 -64.25574783 61.95903915 -64.4375 58.6875 C-65.0975 58.0275 -65.7575 57.3675 -66.4375 56.6875 C-66.0625 54.5625 -66.0625 54.5625 -65.4375 52.6875 C-67.7475 53.3475 -70.0575 54.0075 -72.4375 54.6875 C-72.7675 56.0075 -73.0975 57.3275 -73.4375 58.6875 C-74.200625 58.378125 -74.96375 58.06875 -75.75 57.75 C-77.62539677 57.00856407 -79.52434652 56.32521783 -81.4375 55.6875 C-81.4375 40.8375 -81.4375 25.9875 -81.4375 10.6875 C-77.60125 10.23375 -73.765 9.78 -69.8125 9.3125 C-53.24645897 7.08142502 -37.12374334 2.0922424 -21.74584961 -4.45922852 C-14.85798703 -7.00529723 -6.44350758 -2.33124239 0 0 Z " fill="#0C0C0C" transform="translate(262.4375,192.3125)"/>
<path d="M0 0 C2.13041321 0.79351285 4.26634007 1.57230967 6.40625 2.33984375 C7.55303223 2.76144775 8.69981445 3.18305176 9.88134766 3.61743164 C30.09616034 10.99170584 47.16630766 14.61023091 68.76953125 14.8581543 C71 15 71 15 72 16 C72.12172295 18.51088878 72.17860974 20.99475632 72.19287109 23.50708008 C72.20513733 24.68806023 72.20513733 24.68806023 72.21765137 25.89289856 C72.24260155 28.5184351 72.25906561 31.14391632 72.2734375 33.76953125 C72.27876118 34.67038641 72.28408485 35.57124157 72.28956985 36.49939537 C72.31637112 41.2880811 72.33570429 46.07674042 72.35009766 50.86547852 C72.36331648 54.79638572 72.39093079 58.72675885 72.43212891 62.6574707 C72.48208766 67.42442406 72.50629804 72.19090123 72.51332474 76.95810509 C72.5199485 78.75862506 72.53493119 80.55913823 72.55921555 82.35950661 C72.85139435 105.3762989 67.61086779 128.00339398 51.14453125 144.96020508 C49.77505561 146.3190408 48.38778259 147.6598666 47 149 C46.23300781 149.79792969 45.46601563 150.59585938 44.67578125 151.41796875 C29.6840612 166.20606611 9.14361822 172.3916708 -11.44213867 172.37255859 C-19.16535224 172.20606322 -25.75434568 170.78467625 -33 168 C-33.92683594 167.649375 -34.85367188 167.29875 -35.80859375 166.9375 C-57.08224774 158.04517438 -73.88536802 142.24149988 -82.6875 120.8125 C-87.62813031 106.9608295 -88.43550321 93.96034652 -88.328125 79.4140625 C-88.32505938 77.57701778 -88.32318937 75.73997071 -88.32244873 73.90292358 C-88.3178868 70.08916058 -88.30360765 66.27561361 -88.28125 62.46191406 C-88.25268793 57.56475129 -88.24200594 52.66775556 -88.2375679 47.77051735 C-88.23342619 43.99429653 -88.22362381 40.21810958 -88.21169281 36.44190598 C-88.20598862 34.63411097 -88.2012304 32.82631273 -88.19742584 31.01851273 C-88.19059333 28.51049198 -88.17698299 26.00260678 -88.16113281 23.49462891 C-88.16001495 22.74567856 -88.15889709 21.99672821 -88.15774536 21.2250824 C-88.11471017 16.11471017 -88.11471017 16.11471017 -87 15 C-85.4810966 14.87845762 -83.95703202 14.82030223 -82.43359375 14.7890625 C-81.48105713 14.76295898 -80.52852051 14.73685547 -79.54711914 14.70996094 C-78.00785767 14.66790527 -78.00785767 14.66790527 -76.4375 14.625 C-58.8511253 13.98032427 -42.42062014 10.45169907 -26.1953125 3.5703125 C-25.18154541 3.14766113 -24.16777832 2.72500977 -23.12329102 2.28955078 C-21.12301067 1.44680684 -19.13309747 0.57889985 -17.15600586 -0.31689453 C-10.20262658 -3.24622392 -6.75538738 -3.07301262 0 0 Z M-13.984375 4.40625 C-14.74274658 4.73488037 -15.50111816 5.06351074 -16.2824707 5.40209961 C-17.09675537 5.76440674 -17.91104004 6.12671387 -18.75 6.5 C-26.79717189 9.90623032 -34.89134317 12.60724171 -43.3125 14.9375 C-44.36727539 15.23140625 -45.42205078 15.5253125 -46.50878906 15.828125 C-55.20826626 18.18522251 -63.45565407 19.16804888 -72.4375 19.5625 C-73.35982422 19.60568359 -74.28214844 19.64886719 -75.23242188 19.69335938 C-77.48816163 19.79854931 -79.74399499 19.90069107 -82 20 C-82.04647923 30.51874602 -82.08194812 41.03746733 -82.10362434 51.55629539 C-82.11403138 56.44137594 -82.12813396 61.32638587 -82.15087891 66.21142578 C-82.17271758 70.93172519 -82.18459176 75.65195695 -82.18975449 80.37230301 C-82.19343054 82.16709074 -82.20060861 83.96187506 -82.21146011 85.75663376 C-82.29327648 99.85794251 -81.02094489 111.04737907 -75 124 C-74.38705078 125.36125 -74.38705078 125.36125 -73.76171875 126.75 C-64.88920519 144.75675319 -47.51019442 157.10544483 -28.92529297 163.74072266 C-10.91267201 169.4737627 6.68177332 167.53399968 23.5 159.1875 C29.52930352 156.05906722 34.87440574 152.47456112 40 148 C40.66 147.49339844 41.32 146.98679687 42 146.46484375 C55.09807807 136.05289497 63.71362244 118.39687906 66 102 C66.08609802 99.25458639 66.12676664 96.53600391 66.11352539 93.79150391 C66.11374443 92.59050049 66.11374443 92.59050049 66.1139679 91.36523438 C66.1132748 88.73564891 66.10551076 86.1061355 66.09765625 83.4765625 C66.09578993 81.64667805 66.09436704 79.81679309 66.09336853 77.98690796 C66.08956023 73.18323372 66.0797444 68.37958997 66.06866455 63.57592773 C66.05841411 58.66911227 66.05386314 53.76229185 66.04882812 48.85546875 C66.03812056 39.23696581 66.02106447 29.61848545 66 20 C65.43094437 19.98279907 64.86188873 19.96559814 64.27558899 19.94787598 C53.37872353 19.59318223 42.81035714 19.15770028 32.1875 16.5 C31.11927002 16.24516846 30.05104004 15.99033691 28.95043945 15.7277832 C18.09016313 13.0065349 7.70531182 9.08639702 -2.6418457 4.84448242 C-6.89317623 3.32203162 -9.77849785 2.49958569 -13.984375 4.40625 Z " fill="#AAAAAA" transform="translate(254,174)"/>
<path d="M0 0 C10.63019907 4.24510238 21.21854917 7.98590031 32.36328125 10.64453125 C33.33289795 10.8871167 34.30251465 11.12970215 35.30151367 11.37963867 C45.46474663 13.66876013 55.80068844 13.8309218 66.17578125 14.14453125 C66.24557942 24.6287117 66.29874304 35.112836 66.33121777 45.5972023 C66.34681136 50.46657829 66.36793316 55.33579422 66.40209961 60.20507812 C66.43491959 64.91242781 66.45268158 69.61962442 66.46041298 74.32707977 C66.46591614 76.11464595 66.47666138 77.90220465 66.49297142 79.6897049 C66.68663608 101.81307325 60.95108416 121.329355 45.515625 137.890625 C30.77216747 152.09258659 12.25529836 160.85355161 -8.38671875 161.64453125 C-28.69814185 160.8361164 -49.32954303 150.77221071 -63.21484375 136.02734375 C-74.87668156 122.38412573 -82.02510788 105.8429338 -81.93774414 87.82250977 C-81.93789017 87.02169479 -81.93803619 86.22087982 -81.93818665 85.39579773 C-81.9374948 82.77164926 -81.92973675 80.14757344 -81.921875 77.5234375 C-81.92000823 75.69498229 -81.91858555 73.86652657 -81.91758728 72.03807068 C-81.91378249 67.24263104 -81.90396972 62.44722203 -81.8928833 57.65179443 C-81.88262524 52.75159113 -81.87808027 47.85138284 -81.87304688 42.95117188 C-81.86234552 33.34894493 -81.84529373 23.74674064 -81.82421875 14.14453125 C-80.97287102 14.10792892 -80.97287102 14.10792892 -80.10432434 14.07058716 C-77.49643382 13.95612055 -74.88886012 13.83552314 -72.28125 13.71484375 C-70.94229675 13.65744019 -70.94229675 13.65744019 -69.57629395 13.59887695 C-50.07695659 12.67821147 -30.06680855 6.66709385 -12.56640625 -1.88671875 C-8.01467793 -3.49473673 -4.31696755 -1.76978147 0 0 Z M-14.93359375 3.19140625 C-16.15626953 3.62259766 -17.37894531 4.05378906 -18.63867188 4.49804688 C-19.28199463 4.72661377 -19.92531738 4.95518066 -20.58813477 5.19067383 C-37.75617791 11.27493546 -54.43281955 16.34874962 -72.72265625 17.6953125 C-74.44621338 17.82353394 -74.44621338 17.82353394 -76.20458984 17.9543457 C-77.06906738 18.01710693 -77.93354492 18.07986816 -78.82421875 18.14453125 C-78.91749594 27.92494094 -78.98827341 37.7052423 -79.03146744 47.48600864 C-79.05221363 52.029164 -79.08028953 56.57201181 -79.12597656 61.11499023 C-79.16990302 65.51114295 -79.19345294 69.90700259 -79.20372772 74.30335808 C-79.21103616 75.96845034 -79.22530377 77.63352921 -79.24713898 79.29849434 C-79.51025606 100.22142653 -74.12405355 118.27485431 -59.82421875 134.14453125 C-59.27121094 134.77875 -58.71820313 135.41296875 -58.1484375 136.06640625 C-47.33384086 147.73274916 -29.79767939 156.70907131 -13.88671875 157.42578125 C7.46258752 157.98103229 23.71000676 151.87001627 40.17578125 138.14453125 C41.26826172 137.24154297 41.26826172 137.24154297 42.3828125 136.3203125 C54.02889755 125.73087422 61.04743592 109.52756725 63.17578125 94.14453125 C63.26122018 91.58197042 63.30267102 89.04828568 63.28930664 86.48681641 C63.28952568 85.37359512 63.28952568 85.37359512 63.28974915 84.23788452 C63.28905664 81.80309042 63.28129544 79.36837436 63.2734375 76.93359375 C63.27157097 75.23823081 63.27014817 73.54286733 63.26914978 71.84750366 C63.26534314 67.39893081 63.25552876 62.95039093 63.2444458 58.50183105 C63.23419176 53.95695441 63.22964362 49.4120724 63.22460938 44.8671875 C63.21390475 35.95962098 63.19685069 27.05207886 63.17578125 18.14453125 C62.5617041 18.09507355 61.94762695 18.04561584 61.31494141 17.99465942 C58.47629938 17.76220396 55.63858394 17.51982288 52.80078125 17.27734375 C51.83527344 17.1997583 50.86976563 17.12217285 49.875 17.04223633 C31.22541914 15.4229145 13.40659346 9.13545751 -3.765625 1.90625 C-7.92347684 0.36776592 -10.92948393 1.76395571 -14.93359375 3.19140625 Z " fill="#111111" transform="translate(253.82421875,179.85546875)"/>
<path d="M0 0 C1.59735992 -0.01925285 1.59735992 -0.01925285 3.22698975 -0.03889465 C4.96749603 -0.04997505 4.96749603 -0.04997505 6.74316406 -0.0612793 C8.52113373 -0.07338692 8.52113373 -0.07338692 10.33502197 -0.08573914 C12.85028613 -0.09960118 15.36556927 -0.11031379 17.88085938 -0.11816406 C21.72855352 -0.1353629 25.57538574 -0.17923015 29.42285156 -0.22338867 C31.86294939 -0.23351618 34.30305455 -0.2420321 36.74316406 -0.2487793 C37.89540466 -0.26628738 39.04764526 -0.28379547 40.23480225 -0.30183411 C48.23859456 -0.28010297 48.23859456 -0.28010297 52.21289062 2.07861328 C55.02077002 5.35943484 55.41589994 7.78589316 55.35253906 12.1340332 C55.00878906 14.17700195 55.00878906 14.17700195 52.88378906 17.17700195 C49.50615076 19.52666338 48.03574543 19.86244134 44.00878906 19.17700195 C41.63378906 18.11450195 41.63378906 18.11450195 40.00878906 16.17700195 C39.63378906 12.61450195 39.63378906 12.61450195 40.00878906 9.17700195 C42.00878906 7.17700195 42.00878906 7.17700195 44.63378906 7.05200195 C45.41753906 7.09325195 46.20128906 7.13450195 47.00878906 7.17700195 C47.50378906 9.65200195 47.50378906 9.65200195 48.00878906 12.17700195 C47.34878906 12.17700195 46.68878906 12.17700195 46.00878906 12.17700195 C46.00878906 11.51700195 46.00878906 10.85700195 46.00878906 10.17700195 C45.01878906 10.50700195 44.02878906 10.83700195 43.00878906 11.17700195 C43.00878906 12.16700195 43.00878906 13.15700195 43.00878906 14.17700195 C46.98633035 14.91034625 46.98633035 14.91034625 51.00878906 15.17700195 C51.61799783 9.76239 51.61799783 9.76239 49.38378906 5.17700195 C46.37944363 3.9120144 44.24111464 3.83313753 41.00878906 4.17700195 C40.01878906 4.83700195 39.02878906 5.49700195 38.00878906 6.17700195 C34.79418945 6.43579102 34.79418945 6.43579102 30.85644531 6.44262695 C30.15990341 6.44454041 29.46336151 6.44645386 28.74571228 6.44842529 C27.27391193 6.44978495 25.8020995 6.44610377 24.33032227 6.43774414 C22.08289479 6.42705714 19.83626956 6.43763795 17.58886719 6.45043945 C16.1572248 6.4491175 14.72558292 6.44655437 13.29394531 6.44262695 C11.99336182 6.44037109 10.69277832 6.43811523 9.3527832 6.43579102 C6.19970019 6.19177641 4.68144444 5.70895855 2.00878906 4.17700195 C-1.41709997 3.96725364 -3.72343874 4.08774455 -6.99121094 5.17700195 C-6.99121094 8.14700195 -6.99121094 11.11700195 -6.99121094 14.17700195 C-3.01366965 14.91034625 -3.01366965 14.91034625 1.00878906 15.17700195 C1.00878906 13.52700195 1.00878906 11.87700195 1.00878906 10.17700195 C0.01878906 10.17700195 -0.97121094 10.17700195 -1.99121094 10.17700195 C-1.99121094 10.83700195 -1.99121094 11.49700195 -1.99121094 12.17700195 C-2.98121094 11.84700195 -3.97121094 11.51700195 -4.99121094 11.17700195 C-4.33121094 9.85700195 -3.67121094 8.53700195 -2.99121094 7.17700195 C-0.61621094 7.05200195 -0.61621094 7.05200195 2.00878906 7.17700195 C4.00878906 9.17700195 4.00878906 9.17700195 4.32128906 12.61450195 C4.00878906 16.17700195 4.00878906 16.17700195 2.94628906 18.11450195 C-0.20637711 19.8433834 -2.46894495 19.66283174 -5.99121094 19.17700195 C-8.91084267 17.18916758 -10.60224072 15.74553226 -11.47167969 12.23950195 C-11.76496787 8.05420035 -11.31187736 6.5634461 -8.55371094 3.23950195 C-7.70808594 2.55887695 -6.86246094 1.87825195 -5.99121094 1.17700195 C-4.32168428 -0.4925247 -2.29404044 0.02397341 0 0 Z " fill="#0C0C0C" transform="translate(223.9912109375,234.822998046875)"/>
<path d="M0 0 C3.20384041 1.29516953 4.5905657 2.51997358 6.8125 5.125 C8.47944176 9.16075374 8.83127338 12.70004949 8 17 C6.27803193 20.06765423 4.19357293 22.40321354 1 24 C-3.38779823 24.50187235 -7.98549703 25.00725149 -12.0234375 22.98828125 C-14.64089458 20.86239538 -15.9304379 19.20868631 -17 16 C-17.50154202 9.8811874 -17.07788705 6.89346446 -13 2 C-8.74178609 -0.83880927 -4.99661255 -0.51165313 0 0 Z " fill="#F3F3F3" transform="translate(268,366)"/>
<path d="M0 0 C1.06089844 0.37705078 2.12179687 0.75410156 3.21484375 1.14257812 C5.8125768 2.06699664 8.40741137 2.99877112 11 3.9375 C11 4.5975 11 5.2575 11 5.9375 C7.05224979 7.32394987 3.09058719 8.66551308 -0.875 10 C-1.98359375 10.38994141 -3.0921875 10.77988281 -4.234375 11.18164062 C-14.14637695 14.47592362 -21.6225301 14.62623495 -31 9.9375 C-28.39680887 8.20203924 -26.47732763 7.28574767 -23.5625 6.3125 C-22.80066406 6.05210937 -22.03882813 5.79171875 -21.25390625 5.5234375 C-19 4.9375 -19 4.9375 -15 4.9375 C-15 3.6175 -15 2.2975 -15 0.9375 C-21.13935708 1.36582724 -26.33037319 3.48467788 -32.01171875 5.78125 C-38.19166206 8.17244375 -38.19166206 8.17244375 -40.921875 7.37890625 C-42.61458333 6.56510417 -44.30729167 5.75130208 -46 4.9375 C-41.59771049 2.00264033 -36.77754657 0.52036197 -31.8125 -1.25 C-30.79607422 -1.63091797 -29.77964844 -2.01183594 -28.73242188 -2.40429688 C-17.71639365 -6.32284533 -10.65239854 -3.8596613 0 0 Z " fill="#0D0D0D" transform="translate(263,208.0625)"/>
<path d="M0 0 C1.65 0 3.3 0 5 0 C5.99 4.95 6.98 9.9 8 15 C8.639375 13.06125 9.27875 11.1225 9.9375 9.125 C11.875 3.25 11.875 3.25 13 1 C14.65 1 16.3 1 18 1 C18.99 4.96 19.98 8.92 21 13 C22.65554702 9.68890596 23.2793272 8.20672799 23.625 4.75 C23.74875 3.5125 23.8725 2.275 24 1 C26.31 1 28.62 1 31 1 C30.78794922 1.62044189 30.57589844 2.24088379 30.35742188 2.88012695 C29.40024341 5.68934057 28.45004925 8.50086777 27.5 11.3125 C27.16613281 12.28896484 26.83226562 13.26542969 26.48828125 14.27148438 C26.17246094 15.20927734 25.85664063 16.14707031 25.53125 17.11328125 C25.23798828 17.97735596 24.94472656 18.84143066 24.64257812 19.73168945 C23.86372028 22.08814103 23.86372028 22.08814103 24 25 C21.69 25 19.38 25 17 25 C16.90912109 23.89591797 16.90912109 23.89591797 16.81640625 22.76953125 C16.69072266 21.30580078 16.69072266 21.30580078 16.5625 19.8125 C16.48128906 18.84957031 16.40007812 17.88664062 16.31640625 16.89453125 C16.02650639 14.24248442 15.52320735 11.61603677 15 9 C13.68 13.95 12.36 18.9 11 24 C8.69 24 6.38 24 4 24 C2.66666667 16 1.33333333 8 0 0 Z " fill="#EDEDED" transform="translate(290,131)"/>
<path d="M0 0 C1.32 1.32 2.64 2.64 4 4 C2.87540329 5.77108948 1.75030797 7.54186236 0.625 9.3125 C-0.00148437 10.29863281 -0.62796875 11.28476562 -1.2734375 12.30078125 C-2.49651613 14.21287929 -3.7409356 16.1114034 -5 18 C-3.03946649 16.87883864 -1.08163875 15.75294469 0.875 14.625 C1.96554688 13.99851562 3.05609375 13.37203125 4.1796875 12.7265625 C7.01233343 11.14358549 7.01233343 11.14358549 9 9 C10.98 11.97 10.98 11.97 13 15 C10.36 18.63 7.72 22.26 5 26 C6.44375 25.175 7.8875 24.35 9.375 23.5 C13.75 21 13.75 21 16 21 C16 20.34 16 19.68 16 19 C19 20 19 20 20.1875 22.0625 C20.455625 22.701875 20.72375 23.34125 21 24 C17.87797994 25.50626117 14.75191601 27.00393243 11.625 28.5 C10.73554688 28.92925781 9.84609375 29.35851562 8.9296875 29.80078125 C7.65351563 30.40986328 7.65351563 30.40986328 6.3515625 31.03125 C5.56604004 31.40830078 4.78051758 31.78535156 3.97119141 32.17382812 C2 33 2 33 0 33 C-0.33 33.66 -0.66 34.32 -1 35 C-2.32 33.35 -3.64 31.7 -5 30 C-4.278125 29.319375 -3.55625 28.63875 -2.8125 27.9375 C0.23455693 24.90785482 2.57207954 21.53782696 5 18 C3.03925516 18.95338969 1.08147348 19.9128754 -0.875 20.875 C-1.96554688 21.40867187 -3.05609375 21.94234375 -4.1796875 22.4921875 C-7.03882547 23.84535937 -7.03882547 23.84535937 -9 26 C-10.65 24.02 -12.3 22.04 -14 20 C-12.91138672 19.00419922 -12.91138672 19.00419922 -11.80078125 17.98828125 C-8.58977944 14.77727944 -6.4395462 11.10328748 -4.1875 7.1875 C-3.78080078 6.49462891 -3.37410156 5.80175781 -2.95507812 5.08789062 C-1.96322711 3.39590948 -0.98064402 1.69850109 0 0 Z " fill="#EFEFEF" transform="translate(147,313)"/>
<path d="M0 0 C4.44656735 1.40417916 7.74073311 2.54901153 11 6 C11.49357709 9.8663539 10.82869662 13.22482652 10 17 C9.896875 18.19625 9.79375 19.3925 9.6875 20.625 C9 24 9 24 7.3125 26 C4.04245976 27.41407146 2.42226171 26.98719088 -1 26 C-3.7303356 24.7777559 -6.37457825 23.432654 -9 22 C-7.45173401 17.04242102 -5.48219062 12.36189599 -3.375 7.625 C-2.88773438 6.52091797 -2.88773438 6.52091797 -2.390625 5.39453125 C-1.59615497 3.59529031 -0.79841229 1.79749504 0 0 Z " fill="#F0F0F0" transform="translate(191,352)"/>
<path d="M0 0 C2.5 1.5625 2.5 1.5625 4 4 C3.75 7.5625 3.75 7.5625 3 11 C2.65490872 14.00795167 2.65490872 14.00795167 4.53125 15.60546875 C5.1809375 16.12753906 5.830625 16.64960938 6.5 17.1875 C7.1496875 17.71730469 7.799375 18.24710937 8.46875 18.79296875 C8.9740625 19.19128906 9.479375 19.58960938 10 20 C7 22 7 22 4 22 C2.33333333 20.33333333 0.66666667 18.66666667 -1 17 C-3.66533035 15.680982 -3.66533035 15.680982 -6 15 C-5.01 18.3 -4.02 21.6 -3 25 C-4.65 25.33 -6.3 25.66 -8 26 C-9.17152378 22.54329268 -10.33639077 19.08437878 -11.5 15.625 C-11.83386719 14.64015625 -12.16773438 13.6553125 -12.51171875 12.640625 C-12.82753906 11.69960938 -13.14335937 10.75859375 -13.46875 9.7890625 C-13.76201172 8.91975098 -14.05527344 8.05043945 -14.35742188 7.15478516 C-15 5 -15 5 -15 3 C-9.82075123 0.81926367 -5.71965313 -0.76995331 0 0 Z " fill="#F0F0F0" transform="translate(296,360)"/>
<path d="M0 0 C0.99 0.66 1.98 1.32 3 2 C3 2.99 3 3.98 3 5 C3.66 5.33 4.32 5.66 5 6 C5 8.31 5 10.62 5 13 C4.34 13 3.68 13 3 13 C3 13.99 3 14.98 3 16 C2.01 16 1.02 16 0 16 C0 16.66 0 17.32 0 18 C-6.4 20.21538462 -6.4 20.21538462 -9.4375 19.125 C-9.953125 18.75375 -10.46875 18.3825 -11 18 C-11 17.34 -11 16.68 -11 16 C-11.66 16 -12.32 16 -13 16 C-13 15.01 -13 14.02 -13 13 C-13.66 12.67 -14.32 12.34 -15 12 C-15 9.69 -15 7.38 -15 5 C-14.34 5 -13.68 5 -13 5 C-13 4.01 -13 3.02 -13 2 C-12.34 2 -11.68 2 -11 2 C-11 1.34 -11 0.68 -11 0 C-7.06849066 -2.83068672 -4.31877247 -1.57046272 0 0 Z " fill="#E7F710" transform="translate(386,239)"/>
<path d="M0 0 C0 0.99 0 1.98 0 3 C0.66 3.33 1.32 3.66 2 4 C2 6.31 2 8.62 2 11 C1.34 11 0.68 11 0 11 C0 11.99 0 12.98 0 14 C-0.99 14 -1.98 14 -3 14 C-3 14.66 -3 15.32 -3 16 C-3.99 16 -4.98 16 -6 16 C-6.33 16.66 -6.66 17.32 -7 18 C-7 17.34 -7 16.68 -7 16 C-7.598125 16.185625 -8.19625 16.37125 -8.8125 16.5625 C-11 17 -11 17 -14 16 C-14 15.34 -14 14.68 -14 14 C-14.66 14 -15.32 14 -16 14 C-16 13.01 -16 12.02 -16 11 C-16.66 11 -17.32 11 -18 11 C-18.25 3.375 -18.25 3.375 -16 0 C-15.34 0 -14.68 0 -14 0 C-14 -0.66 -14 -1.32 -14 -2 C-7.72642683 -4.56064211 -5.53520741 -3.84075616 0 0 Z " fill="#E8F810" transform="translate(119,241)"/>
<path d="M0 0 C2.44940815 0.85489147 4.66083041 1.85428428 7 3 C6.01 4.32 5.02 5.64 4 7 C3.01 6.67 2.02 6.34 1 6 C-2.53648959 5.62923899 -5.81065025 5.36815795 -9 7.0625 C-10.60856522 10.17909511 -10.42213381 12.56262469 -10 16 C-8.71107713 18.62283334 -8.71107713 18.62283334 -6 20 C-2.96917943 20.31821008 -0.03467666 20.23343667 3 20 C3 18.35 3 16.7 3 15 C0.69 15 -1.62 15 -4 15 C-4 13.35 -4 11.7 -4 10 C-0.37 10.33 3.26 10.66 7 11 C7.60550459 21.29357798 7.60550459 21.29357798 5.125 24.1875 C0.14600543 25.48203859 -5.23107427 26.50122479 -9.9453125 23.9453125 C-12.96120986 21.48305814 -14.759319 19.4961922 -15.37890625 15.64453125 C-15.85696491 8.2702221 -15.85696491 8.2702221 -13.4609375 4.71875 C-9.20780927 0.71194194 -5.96749352 -1.08499882 0 0 Z " fill="#EEEEEE" transform="translate(229,129)"/>
<path d="M0 0 C3.125 1 3.125 1 5 2 C3.68 3.32 2.36 4.64 1 6 C0.34 5.67 -0.32 5.34 -1 5 C-6.424703 4.34409059 -6.424703 4.34409059 -11 6.625 C-12.28292178 9.67193922 -12.40995912 11.72032701 -12 15 C-10.88422545 17.251697 -10.88422545 17.251697 -9 19 C-6.49119384 19.48261667 -6.49119384 19.48261667 -3.8125 19.25 C-2.46091797 19.19585937 -2.46091797 19.19585937 -1.08203125 19.140625 C-0.39496094 19.09421875 0.29210937 19.0478125 1 19 C1 17.35 1 15.7 1 14 C-0.98 14 -2.96 14 -5 14 C-5 12.68 -5 11.36 -5 10 C-1.37 10 2.26 10 6 10 C6.48828125 18.30078125 6.48828125 18.30078125 6 21 C1.68333032 24.64954801 -2.66115458 24.69236411 -8.10546875 24.53125 C-11.23681325 23.9565363 -12.53256128 23.36889981 -14.75 21.125 C-17.35605954 17.33156421 -17.7471413 13.83521888 -17.46484375 9.3046875 C-15.60083001 0.06293873 -7.82542948 -0.6479655 0 0 Z " fill="#EEEEEE" transform="translate(158,133)"/>
<path d="M0 0 C2.5221286 1.24743936 5.04270078 2.49787069 7.5625 3.75 C8.26697266 4.09804688 8.97144531 4.44609375 9.69726562 4.8046875 C14.22551026 7.05837608 18.6309758 9.45092412 23 12 C22.01 13.485 22.01 13.485 21 15 C19.80375 14.731875 18.6075 14.46375 17.375 14.1875 C14.75060729 13.83259992 13.46492875 13.73932865 11.1328125 15.046875 C9.29537234 16.5685106 9.29537234 16.5685106 7 19 C7.66 20.98 8.32 22.96 9 25 C7.35 25.99 5.7 26.98 4 28 C2.76765678 24.2574602 1.56838543 20.50512632 0.375 16.75 C0.024375 15.68652344 -0.32625 14.62304688 -0.6875 13.52734375 C-1.00976562 12.50253906 -1.33203125 11.47773438 -1.6640625 10.421875 C-1.96779785 9.47924805 -2.2715332 8.53662109 -2.58447266 7.56542969 C-3.06785297 4.58108164 -2.64884696 3.47994451 -1 1 C-0.67 0.67 -0.34 0.34 0 0 Z " fill="#F2F2F2" transform="translate(332,336)"/>
<path d="M0 0 C10.77188465 0.18898043 10.77188465 0.18898043 15.3125 3.1875 C17 6 17 6 17 9.125 C15.96916471 12.08865145 15.47246004 13.16316149 13 15 C10.30078125 15.29296875 10.30078125 15.29296875 7.3125 15.1875 C6.31863281 15.16042969 5.32476562 15.13335937 4.30078125 15.10546875 C3.54152344 15.07066406 2.78226563 15.03585937 2 15 C2 17.97 2 20.94 2 24 C0.02 24 -1.96 24 -4 24 C-3.87882813 23.35675781 -3.75765625 22.71351563 -3.6328125 22.05078125 C-2.27358053 14.72138422 -1.10172988 7.37221374 0 0 Z " fill="#F1F1F1" transform="translate(227,365)"/>
<path d="M0 0 C2.43868168 -0.1079859 4.87259133 -0.18726589 7.3125 -0.25 C8.00279297 -0.28351563 8.69308594 -0.31703125 9.40429688 -0.3515625 C14.50188701 -0.45006666 14.50188701 -0.45006666 16.984375 1.79296875 C18.54182965 5.17743751 17.96258158 7.47053421 17 11 C15.4375 12.9375 15.4375 12.9375 13 14 C10.27965004 14.22886309 7.74053927 14.13702696 5 14 C5.33 17.3 5.66 20.6 6 24 C4.35 24 2.7 24 1 24 C0.20318916 15.97497656 -0.12867289 8.06350113 0 0 Z " fill="#F3F3F3" transform="translate(180,132)"/>
<path d="M0 0 C3.4375 1.8125 3.4375 1.8125 6 4 C6 4.99 6 5.98 6 7 C5.01 7.33 4.02 7.66 3 8 C2.34 7.34 1.68 6.68 1 6 C-4.20389101 5.4909386 -4.20389101 5.4909386 -9 7.0625 C-10.60856522 10.17909511 -10.42213381 12.56262469 -10 16 C-8.60314994 18.6469872 -8.60314994 18.6469872 -6 20 C-0.94307101 19.85718492 -0.94307101 19.85718492 3 17 C4.32 18.32 5.64 19.64 7 21 C4.72070096 23.43125231 2.93202875 24.87050974 -0.41796875 25.3359375 C-4.7908417 25.40052942 -8.22961839 25.41979715 -12 23 C-15.3672492 18.22973029 -16.86957549 14.97833146 -16 9 C-12.32317126 1.9187002 -8.0382172 -0.98714948 0 0 Z " fill="#ECECEC" transform="translate(268,129)"/>
<path d="M0 0 C1.77388086 1.09926403 3.54399684 2.20460502 5.3125 3.3125 C6.29863281 3.92738281 7.28476563 4.54226563 8.30078125 5.17578125 C10.50172035 6.66324661 12.23328988 8.0403386 14 10 C12.265625 11.1484375 12.265625 11.1484375 10 12 C7.859375 11.1015625 7.859375 11.1015625 5.75 9.625 C5.04359375 9.14289063 4.3371875 8.66078125 3.609375 8.1640625 C3.07828125 7.77992188 2.5471875 7.39578125 2 7 C1.34 8.32 0.68 9.64 0 11 C2.31 12.65 4.62 14.3 7 16 C6.01 17.32 5.02 18.64 4 20 C4 19.34 4 18.68 4 18 C0.62902617 16.50178941 -1.20442119 16 -5 16 C-5.33 17.32 -5.66 18.64 -6 20 C-3.03 21.98 -0.06 23.96 3 26 C2.01 27.32 1.02 28.64 0 30 C-4.29 26.7 -8.58 23.4 -13 20 C-8.74538274 13.27770473 -4.44672877 6.59679543 0 0 Z " fill="#F0F0F0" transform="translate(172,339)"/>
<path d="M0 0 C3.38677089 2.45000447 4.78698584 3.86392446 5.5625 8 C4.84202557 11.8425303 3.99097304 13.45767292 1 16 C-2.75912419 16.81653107 -5.89787544 16.45215366 -9.4375 15 C-11.84973599 11.91233793 -12.43054136 8.8824256 -12 5 C-8.71914333 0.078715 -5.79090106 -1.03408947 0 0 Z " fill="#0F0F0F" transform="translate(267,370)"/>
<path d="M0 0 C2.4375 1.0625 2.4375 1.0625 4 2 C4 2.66 4 3.32 4 4 C2.02 4.99 2.02 4.99 0 6 C-0.33 5.67 -0.66 5.34 -1 5 C-2.99958364 4.95919217 -5.00045254 4.95745644 -7 5 C-6.33832443 8.05335724 -6.33832443 8.05335724 -4.22265625 9.09765625 C-3.50980469 9.41605469 -2.79695313 9.73445312 -2.0625 10.0625 C0.50887099 11.22451702 1.97683978 11.97683978 4 14 C3.9375 17.4375 3.9375 17.4375 3 21 C0.35459845 23.34306995 -1.459272 23.91946604 -4.9375 24.4375 C-8.839218 23.88011171 -10.99133614 22.50721988 -14 20 C-14 19.01 -14 18.02 -14 17 C-13.01 16.34 -12.02 15.68 -11 15 C-10.1646875 15.99 -10.1646875 15.99 -9.3125 17 C-7.15937692 19.25492211 -7.15937692 19.25492211 -4.25 19.25 C-3.13625 19.12625 -3.13625 19.12625 -2 19 C-2 17.68 -2 16.36 -2 15 C-2.63808594 14.72027344 -3.27617187 14.44054687 -3.93359375 14.15234375 C-10.65623842 10.89065499 -10.65623842 10.89065499 -12.375 6.4375 C-12 3 -12 3 -10 0.5 C-6.13232789 -1.43383606 -4.14267895 -1.0545001 0 0 Z " fill="#EEEEEE" transform="translate(347,134)"/>
<path d="M0 0 C8.91 0 17.82 0 27 0 C27.33 2.31 27.66 4.62 28 7 C18.76 7 9.52 7 0 7 C0 4.69 0 2.38 0 0 Z " fill="#111111" transform="translate(232,245)"/>
<path d="M0 0 C-3.41729595 2.9497002 -7.14699397 4.31743291 -11.36328125 5.734375 C-12.07348923 5.97665833 -12.7836972 6.21894165 -13.51542664 6.46856689 C-15.01440625 6.97663982 -16.51475429 7.48069109 -18.01635742 7.98095703 C-20.29999381 8.74581132 -22.57454677 9.53428355 -24.84960938 10.32421875 C-26.3120055 10.81657537 -27.774882 11.30750796 -29.23828125 11.796875 C-29.91143875 12.03323669 -30.58459625 12.26959839 -31.27815247 12.51312256 C-37.41113578 14.50886258 -42.4488097 13.75896081 -48.40234375 11.58984375 C-49.14677734 11.32236328 -49.89121094 11.05488281 -50.65820312 10.77929688 C-51.41037109 10.50150391 -52.16253906 10.22371094 -52.9375 9.9375 C-53.71673828 9.65583984 -54.49597656 9.37417969 -55.29882812 9.08398438 C-57.20140125 8.39532294 -59.10101725 7.69850097 -61 7 C-60.67 6.01 -60.34 5.02 -60 4 C-58.52026655 4.43557916 -57.04125215 4.87360096 -55.5625 5.3125 C-54.65113281 5.58191406 -53.73976562 5.85132813 -52.80078125 6.12890625 C-49.55034191 7.13985182 -46.37478024 8.31210846 -43.203125 9.546875 C-38.01698749 10.6135274 -32.87431494 8.38553345 -28.02734375 6.6796875 C-26.70262078 6.22223085 -25.37774636 5.76521259 -24.05273438 5.30859375 C-21.98830763 4.59149522 -19.92537931 3.87071371 -17.86499023 3.14208984 C-15.86018549 2.43546467 -13.85061654 1.74411416 -11.83984375 1.0546875 C-10.64738037 0.63687012 -9.45491699 0.21905273 -8.22631836 -0.21142578 C-4.96894558 -1.0075903 -3.17077552 -0.96142964 0 0 Z " fill="#191919" transform="translate(285,216)"/>
<path d="M0 0 C0.95708359 0.00222061 1.91416718 0.00444122 2.9002533 0.00672913 C3.98129837 0.00680466 5.06234344 0.00688019 6.17614746 0.00695801 C7.94018166 0.01469994 7.94018166 0.01469994 9.73985291 0.02259827 C10.93702438 0.02401321 12.13419586 0.02542816 13.36764526 0.02688599 C17.20918732 0.03250472 21.05067208 0.04506041 24.89219666 0.05775452 C27.48920102 0.0627671 30.0862063 0.06733043 32.68321228 0.07142639 C39.06539344 0.08248024 45.44754096 0.0992366 51.82969666 0.12025452 C51.82969666 0.45025452 51.82969666 0.78025452 51.82969666 1.12025452 C34.33969666 1.45025452 16.84969666 1.78025452 -1.17030334 2.12025452 C-1.50030334 3.11025452 -1.83030334 4.10025452 -2.17030334 5.12025452 C-2.83030334 5.12025452 -3.49030334 5.12025452 -4.17030334 5.12025452 C-4.17030334 8.09025452 -4.17030334 11.06025452 -4.17030334 14.12025452 C-0.19276206 14.85359881 -0.19276206 14.85359881 3.82969666 15.12025452 C3.82969666 13.47025452 3.82969666 11.82025452 3.82969666 10.12025452 C2.83969666 10.12025452 1.84969666 10.12025452 0.82969666 10.12025452 C0.82969666 10.78025452 0.82969666 11.44025452 0.82969666 12.12025452 C-0.16030334 11.79025452 -1.15030334 11.46025452 -2.17030334 11.12025452 C-1.51030334 9.80025452 -0.85030334 8.48025452 -0.17030334 7.12025452 C2.20469666 6.99525452 2.20469666 6.99525452 4.82969666 7.12025452 C6.82969666 9.12025452 6.82969666 9.12025452 7.14219666 12.55775452 C6.82969666 16.12025452 6.82969666 16.12025452 5.76719666 18.05775452 C2.61453048 19.78663596 0.35196264 19.60608431 -3.17030334 19.12025452 C-6.08993507 17.13242015 -7.78133313 15.68878482 -8.65077209 12.18275452 C-8.94406028 7.99745291 -8.49096977 6.50669867 -5.73280334 3.18275452 C-4.88717834 2.50212952 -4.04155334 1.82150452 -3.17030334 1.12025452 C-2.17030334 0.12025452 -2.17030334 0.12025452 0 0 Z " fill="#353535" transform="translate(221.17030334472656,234.87974548339844)"/>
<path d="M0 0 C7.92 0 15.84 0 24 0 C21.77777778 5.55555556 21.77777778 5.55555556 18.5 7 C15.66633767 8.43745033 15.11006832 8.78943452 13.5625 11.75 C13.376875 12.4925 13.19125 13.235 13 14 C12.34 14 11.68 14 11 14 C10.401875 13.071875 9.80375 12.14375 9.1875 11.1875 C7.26556633 7.90976664 7.26556633 7.90976664 4.375 6.4375 C2 5 2 5 0 0 Z " fill="#121212" transform="translate(234,307)"/>
<path d="M0 0 C0.99 0.33 1.98 0.66 3 1 C3.33 1.99 3.66 2.98 4 4 C1.69 4.66 -0.62 5.32 -3 6 C-1.89835882 8.23044611 -0.79378106 10.45935646 0.3125 12.6875 C0.62123047 13.31333984 0.92996094 13.93917969 1.24804688 14.58398438 C3.0238106 18.15420407 4.89532729 21.61309592 7 25 C5.35 25.66 3.7 26.32 2 27 C0.49480613 24.37785672 -1.00431319 21.75255792 -2.5 19.125 C-2.92925781 18.37863281 -3.35851562 17.63226563 -3.80078125 16.86328125 C-4.20683594 16.14785156 -4.61289062 15.43242187 -5.03125 14.6953125 C-5.40830078 14.03547363 -5.78535156 13.37563477 -6.17382812 12.69580078 C-7 11 -7 11 -7 9 C-10.96 10.98 -10.96 10.98 -15 13 C-15.66 11.68 -16.32 10.36 -17 9 C-15.85660156 8.43410156 -14.71320313 7.86820312 -13.53515625 7.28515625 C-12.04421862 6.54437592 -10.55333604 5.80348478 -9.0625 5.0625 C-8.30775391 4.68931641 -7.55300781 4.31613281 -6.77539062 3.93164062 C-6.05673828 3.57392578 -5.33808594 3.21621094 -4.59765625 2.84765625 C-3.93258057 2.51773682 -3.26750488 2.18781738 -2.58227539 1.84790039 C-1.00380637 1.10022992 -1.00380637 1.10022992 0 0 Z " fill="#EDEDED" transform="translate(319,346)"/>
<path d="M0 0 C4.86252791 2.09710919 8.542534 5.705049 12.5390625 9.1015625 C14.74591095 11.20360115 14.74591095 11.20360115 17 11 C18.57840572 9.44294806 18.57840572 9.44294806 20.125 7.5 C20.66382813 6.8503125 21.20265625 6.200625 21.7578125 5.53125 C22.16773438 5.0259375 22.57765625 4.520625 23 4 C23.99 4.33 24.98 4.66 26 5 C24.50923566 8.2826932 22.61379679 10.93077441 20.375 13.75 C19.74335938 14.54921875 19.11171875 15.3484375 18.4609375 16.171875 C17.97882813 16.77515625 17.49671875 17.3784375 17 18 C16.55011719 17.6596875 16.10023438 17.319375 15.63671875 16.96875 C9.807788 12.5766098 3.91086196 8.2810287 -2 4 C-1.34 2.68 -0.68 1.36 0 0 Z " fill="#EFEFEF" transform="translate(346,322)"/>
<path d="M0 0 C13.2 0 26.4 0 40 0 C40 0.99 40 1.98 40 3 C26.8 3 13.6 3 0 3 C0 2.01 0 1.02 0 0 Z " fill="#181818" transform="translate(226,300)"/>
<path d="M0 0 C0.99 0 1.98 0 3 0 C3 11.22 3 22.44 3 34 C2.01 34 1.02 34 0 34 C0 22.78 0 11.56 0 0 Z " fill="#222222" transform="translate(236,262)"/>
<path d="M0 0 C0.99 0 1.98 0 3 0 C3 11.22 3 22.44 3 34 C2.01 34 1.02 34 0 34 C0 22.78 0 11.56 0 0 Z " fill="#1D1D1D" transform="translate(230,262)"/>
<path d="M0 0 C2.97 0.99 5.94 1.98 9 3 C9.4375 6.1875 9.4375 6.1875 9 10 C6.91454966 12.11158381 4.58793807 13.56739143 2 15 C1.855625 13.865625 1.71125 12.73125 1.5625 11.5625 C1.38828522 8.19222799 1.38828522 8.19222799 0 7 C-0.04092937 4.66702567 -0.04241723 2.33294775 0 0 Z " fill="#0F0F0F" transform="translate(208,222)"/>
<path d="M0 0 C6.0546875 -0.1953125 6.0546875 -0.1953125 8 0 C8.66 0.66 9.32 1.32 10 2 C9.46428571 5.53571429 9.46428571 5.53571429 8 7 C5.32941149 7.14115161 2.67567762 7.04247107 0 7 C0 4.69 0 2.38 0 0 Z " fill="#252525" transform="translate(184,135)"/>
<path d="M0 0 C7.75 0.75 7.75 0.75 10 3 C9.67 4.32 9.34 5.64 9 7 C6.03 7 3.06 7 0 7 C0 4.69 0 2.38 0 0 Z " fill="#1C1C1C" transform="translate(230,369)"/>
<path d="M0 0 C1.98 0.66 3.96 1.32 6 2 C6.625 4.375 6.625 4.375 7 7 C6.34 7.66 5.68 8.32 5 9 C2.38419521 8.6730244 0.35921863 8.17960932 -2 7 C-1.125 1.125 -1.125 1.125 0 0 Z " fill="#191919" transform="translate(190,366)"/>
<path d="M0 0 C2.375 -0.125 2.375 -0.125 5 0 C7 2 7 2 7.25 5.5 C7 9 7 9 5 11 C2.375 11.125 2.375 11.125 0 11 C0.66 10.01 1.32 9.02 2 8 C2.66 8 3.32 8 4 8 C4 6.35 4 4.7 4 3 C3.01 3 2.02 3 1 3 C1 3.66 1 4.32 1 5 C0.01 4.67 -0.98 4.34 -2 4 C-1.34 2.68 -0.68 1.36 0 0 Z " fill="#141414" transform="translate(221,242)"/>
<path d="M0 0 C0.33 1.32 0.66 2.64 1 4 C-3.625 7 -3.625 7 -7 7 C-7.66 5.02 -8.32 3.04 -9 1 C-5.8035914 -0.06546953 -3.34252724 -0.07427838 0 0 Z " fill="#161616" transform="translate(295,364)"/>
<path d="M0 0 C0.66 0.33 1.32 0.66 2 1 C2.33 1.99 2.66 2.98 3 4 C3.99 4.33 4.98 4.66 6 5 C6 5.66 6 6.32 6 7 C5.01 7.33 4.02 7.66 3 8 C1.79117904 10.00016466 1.79117904 10.00016466 1 12 C0.62875 11.0409375 0.62875 11.0409375 0.25 10.0625 C-0.81562433 7.81258459 -0.81562433 7.81258459 -3.125 7.25 C-3.74375 7.1675 -4.3625 7.085 -5 7 C-5 6.34 -5 5.68 -5 5 C-4.01 4.67 -3.02 4.34 -2 4 C-0.79117904 1.99983534 -0.79117904 1.99983534 0 0 Z " fill="#A3A3A3" transform="translate(278,267)"/>
<path d="M0 0 C0.99 0.33 1.98 0.66 3 1 C3.33 1.99 3.66 2.98 4 4 C5.49985609 5.66710346 5.49985609 5.66710346 7 7 C6.38125 7.268125 5.7625 7.53625 5.125 7.8125 C2.7004767 8.95556848 2.7004767 8.95556848 1 12 C-0.70884005 10.37660195 -2.37446717 8.70680947 -4 7 C-4 6.34 -4 5.68 -4 5 C-3.01 4.67 -2.02 4.34 -1 4 C-0.26676204 1.98491642 -0.26676204 1.98491642 0 0 Z " fill="#A3A3A3" transform="translate(212,267)"/>
<path d="M0 0 C0.99 0.33 1.98 0.66 3 1 C3.33 1.99 3.66 2.98 4 4 C4.66 4.33 5.32 4.66 6 5 C6 7 6 7 4.125 9.125 C2 11 2 11 0 11 C-0.33 10.01 -0.66 9.02 -1 8 C-1.99 7.67 -2.98 7.34 -4 7 C-3.67 6.01 -3.34 5.02 -3 4 C-2.34 3.67 -1.68 3.34 -1 3 C-0.67 2.01 -0.34 1.02 0 0 Z " fill="#A0A0A0" transform="translate(299,225)"/>
<path d="M0 0 C0.66 0.33 1.32 0.66 2 1 C2 1.99 2 2.98 2 4 C3.32 4.33 4.64 4.66 6 5 C6 5.66 6 6.32 6 7 C5.360625 7.28875 4.72125 7.5775 4.0625 7.875 C1.84793921 8.82823451 1.84793921 8.82823451 1 11 C0.34 11 -0.32 11 -1 11 C-1.33 10.01 -1.66 9.02 -2 8 C-2.99 7.67 -3.98 7.34 -5 7 C-5 6.34 -5 5.68 -5 5 C-4.01 4.67 -3.02 4.34 -2 4 C-0.79117904 1.99983534 -0.79117904 1.99983534 0 0 Z " fill="#A0A0A0" transform="translate(191,225)"/>
<path d="M0 0 C3.41158256 1.13719419 4.11854601 2.04342944 6 5 C6 5.66 6 6.32 6 7 C5.01 7 4.02 7 3 7 C2.67 8.32 2.34 9.64 2 11 C1.34 11 0.68 11 0 11 C-0.33 10.01 -0.66 9.02 -1 8 C-2.49985609 6.33289654 -2.49985609 6.33289654 -4 5 C-2.68 4.67 -1.36 4.34 0 4 C0 2.68 0 1.36 0 0 Z " fill="#9E9E9E" transform="translate(188,209)"/>
<path d="M0 0 C0.66 0 1.32 0 2 0 C2 1.32 2 2.64 2 4 C3.32 4.66 4.64 5.32 6 6 C5.01 6.66 4.02 7.32 3 8 C2.67 8.99 2.34 9.98 2 11 C1.34 11 0.68 11 0 11 C-0.103125 10.360625 -0.20625 9.72125 -0.3125 9.0625 C-0.539375 8.381875 -0.76625 7.70125 -1 7 C-1.99 6.67 -2.98 6.34 -4 6 C-2.7260411 3.96166576 -1.38938077 1.96147874 0 0 Z " fill="#A3A3A3" transform="translate(302,209)"/>
<path d="M0 0 C-3.3730619 2.96829447 -6.62968884 4.06350475 -11 5 C-13.4375 4.625 -13.4375 4.625 -15 4 C-13.66783496 1.33566992 -12.52848372 1.25552841 -9.75 0.3125 C-6.14749309 -0.83662501 -3.66882211 -1.3018401 0 0 Z " fill="#1B1B1B" transform="translate(285,216)"/>
<path d="M0 0 C3.15467773 0.76943359 4.58588104 1.32952169 6.3125 4.125 C6.539375 4.74375 6.76625 5.3625 7 6 C5.14375 5.7215625 5.14375 5.7215625 3.25 5.4375 C0.23720423 5.05288777 -2.10010827 4.9125406 -5 6 C-3.63016497 2.83884224 -3.0109362 2.0072908 0 0 Z " fill="#131313" transform="translate(245,327)"/>
<path d="M0 0 C2.9719385 1.12451727 5.33440687 2.22293791 8 4 C8 4.66 8 5.32 8 6 C5.5 7.625 5.5 7.625 3 9 C2.01 6.03 1.02 3.06 0 0 Z " fill="#191919" transform="translate(334,342)"/>
<path d="M0 0 C1.5 1.125 1.5 1.125 3 3 C3.25265405 6.09501208 3.39935013 8.20129973 2 11 C1.34 11 0.68 11 0 11 C-0.19406478 9.35492782 -0.38007935 7.70890406 -0.5625 6.0625 C-0.66691406 5.14597656 -0.77132813 4.22945313 -0.87890625 3.28515625 C-0.91886719 2.53105469 -0.95882813 1.77695312 -1 1 C-0.67 0.67 -0.34 0.34 0 0 Z " fill="#222222" transform="translate(285,291)"/>
<path d="M0 0 C-0.61016949 5.49152542 -0.61016949 5.49152542 -2.4375 7.875 C-4 9 -4 9 -6 9 C-5.38983051 3.50847458 -5.38983051 3.50847458 -3.5625 1.125 C-2 0 -2 0 0 0 Z " fill="#222222" transform="translate(195,252)"/>
<path d="M0 0 C1.00289062 0.28746094 2.00578125 0.57492188 3.0390625 0.87109375 C3.80992187 1.09925781 4.58078125 1.32742187 5.375 1.5625 C5.045 2.2225 4.715 2.8825 4.375 3.5625 C2.93638706 3.47503716 1.49902492 3.36684652 0.0625 3.25 C-0.73800781 3.19199219 -1.53851563 3.13398438 -2.36328125 3.07421875 C-4.98772334 2.48043306 -5.93320672 1.60469706 -7.625 -0.4375 C-4.72405209 -1.88797396 -3.06527404 -0.89106803 0 0 Z " fill="#1A1A1A" transform="translate(215.625,216.4375)"/>
<path d="M0 0 C0.33 0.99 0.66 1.98 1 3 C-6.75 3.125 -6.75 3.125 -9 2 C-9 1.34 -9 0.68 -9 0 C-5.93109813 -1.53445094 -3.29905734 -0.54984289 0 0 Z " fill="#171717" transform="translate(294,307)"/>
<path d="M0 0 C0 0.66 0 1.32 0 2 C-3.47325181 3.1577506 -6.36067448 3.06866652 -10 3 C-9.67 2.01 -9.34 1.02 -9 0 C-5.93109813 -1.53445094 -3.29905734 -0.54984289 0 0 Z " fill="#191919" transform="translate(207,307)"/>
<path d="M0 0 C-0.30618405 3.67420866 -0.75771784 4.78135513 -3.5625 7.3125 C-4.366875 7.869375 -5.17125 8.42625 -6 9 C-6.8125 7.3125 -6.8125 7.3125 -7 5 C-2.79545455 0 -2.79545455 0 0 0 Z " fill="#171717" transform="translate(312,263)"/>
<path d="M0 0 C1.65 0.33 3.3 0.66 5 1 C4.67 2.65 4.34 4.3 4 6 C2.35 5.67 0.7 5.34 -1 5 C-0.67 3.35 -0.34 1.7 0 0 Z " fill="#252525" transform="translate(193,358)"/>
<path d="M0 0 C-1.0625 1.5 -1.0625 1.5 -3 3 C-6.6875 3.1875 -6.6875 3.1875 -10 3 C-9.67 2.01 -9.34 1.02 -9 0 C-5.93109813 -1.53445094 -3.29905734 -0.54984289 0 0 Z " fill="#191919" transform="translate(214,313)"/>
<path d="M0 0 C0.66 0 1.32 0 2 0 C4.47346304 2.47346304 4.98313144 3.70761168 5.1875 7.25 C5.125625 8.1575 5.06375 9.065 5 10 C0.07692308 5.69230769 0.07692308 5.69230769 -0.3125 2.1875 C-0.209375 1.465625 -0.10625 0.74375 0 0 Z " fill="#1F1F1F" transform="translate(228,310)"/>
<path d="M0 0 C0.66 0 1.32 0 2 0 C2.25 2.75 2.25 2.75 2 6 C0 8.375 0 8.375 -2 10 C-2.1953125 3.9453125 -2.1953125 3.9453125 -2 2 C-1.34 1.34 -0.68 0.68 0 0 Z " fill="#141414" transform="translate(270,306)"/>
<path d="M0 0 C1.98 0.99 1.98 0.99 4 2 C4 4.64 4 7.28 4 10 C2 8.375 2 8.375 0 6 C-0.25 2.75 -0.25 2.75 0 0 Z " fill="#181818" transform="translate(211,299)"/>
<path d="M0 0 C0.99 0 1.98 0 3 0 C4.4783226 2.95664519 4.06032783 5.74229737 4 9 C3.01 9.495 3.01 9.495 2 10 C0.39644899 6.49223216 -0.22036864 3.85645121 0 0 Z " fill="#1E1E1E" transform="translate(290,284)"/>
<path d="M0 0 C3.84685385 1.24762828 6.02929405 2.3870391 8 6 C7.67 6.99 7.34 7.98 7 9 C3.26115668 6.34345343 1.35021826 4.41889613 0 0 Z " fill="#171717" transform="translate(179,263)"/>
<path d="M0 0 C0.66 0.33 1.32 0.66 2 1 C1.67 1.99 1.34 2.98 1 4 C0.34 4 -0.32 4 -1 4 C-1.33 6.31 -1.66 8.62 -2 11 C-3.5625 9.8125 -3.5625 9.8125 -5 8 C-4.9375 5.5 -4.9375 5.5 -4 3 C-1.9375 1.1875 -1.9375 1.1875 0 0 Z " fill="#1D1D1D" transform="translate(218,236)"/>
<path d="M0 0 C1.36125 0.12375 1.36125 0.12375 2.75 0.25 C1.75 3.25 1.75 3.25 -0.25 4.25 C-2.5829866 4.29022391 -4.91706666 4.29320247 -7.25 4.25 C-4.83923194 1.28290085 -3.90322061 0.30024774 0 0 Z " fill="#161616" transform="translate(227.25,321.75)"/>
<path d="M0 0 C0.66 0.33 1.32 0.66 2 1 C2 1.66 2 2.32 2 3 C0.72125 3.061875 -0.5575 3.12375 -1.875 3.1875 C-2.59429687 3.22230469 -3.31359375 3.25710938 -4.0546875 3.29296875 C-4.69664062 3.19628906 -5.33859375 3.09960938 -6 3 C-6.66 2.01 -7.32 1.02 -8 0 C-5.11541362 -1.44229319 -3.09360585 -0.64450122 0 0 Z " fill="#191919" transform="translate(286,313)"/>
<path d="M0 0 C3 1 3 1 4 3 C4.04022391 5.3329866 4.04320247 7.66706666 4 10 C2 8.375 2 8.375 0 6 C-0.25 2.75 -0.25 2.75 0 0 Z " fill="#101010" transform="translate(220,306)"/>
<path d="M0 0 C0.66 0 1.32 0 2 0 C1.5020163 3.73487777 1.12508244 5.81237635 -1 9 C-1.66 9 -2.32 9 -3 9 C-2.25 2.25 -2.25 2.25 0 0 Z " fill="#1C1C1C" transform="translate(193,264)"/>
<path d="M0 0 C3.3125 -0.25 3.3125 -0.25 7 0 C8.9375 2 8.9375 2 10 4 C6.6875 4.25 6.6875 4.25 3 4 C1.0625 2 1.0625 2 0 0 Z " fill="#101010" transform="translate(253,326)"/>
<path d="M0 0 C2.75 -0.25 2.75 -0.25 6 0 C8.375 2 8.375 2 10 4 C3.375 4.25 3.375 4.25 0 2 C0 1.34 0 0.68 0 0 Z " fill="#111111" transform="translate(262,322)"/>
<path d="M0 0 C1.98 0.99 1.98 0.99 4 2 C4 4.64 4 7.28 4 10 C1.2027092 7.93243723 0.97307727 6.85559629 0.3125 3.3125 C0.209375 2.219375 0.10625 1.12625 0 0 Z " fill="#1A1A1A" transform="translate(294,274)"/>
<path d="M0 0 C-0.30618405 3.67420866 -0.75771784 4.78135513 -3.5625 7.3125 C-4.366875 7.869375 -5.17125 8.42625 -6 9 C-6.25 6.75 -6.25 6.75 -6 4 C-2.75675676 0 -2.75675676 0 0 0 Z " fill="#131313" transform="translate(312,252)"/>
<path d="M0 0 C2.46800047 1.15173355 4.04783565 2.04783565 6 4 C6.125 6.625 6.125 6.625 6 9 C1.2 5.67692308 1.2 5.67692308 0.1875 2.25 C0.125625 1.5075 0.06375 0.765 0 0 Z " fill="#131313" transform="translate(180,252)"/>
<path d="M0 0 C1.093125 0.0825 2.18625 0.165 3.3125 0.25 C1.6875 2.25 1.6875 2.25 -0.6875 4.25 C-3.9375 4.5 -3.9375 4.5 -6.6875 4.25 C-4.79150483 0.68106792 -4.16790733 0.28256999 0 0 Z " fill="#0E0E0E" transform="translate(235.6875,325.75)"/>
<path d="M0 0 C2.31 0 4.62 0 7 0 C7.66 1.32 8.32 2.64 9 4 C2.25 3.125 2.25 3.125 0 2 C0 1.34 0 0.68 0 0 Z " fill="#0E0E0E" transform="translate(271,318)"/>
<path d="M0 0 C2.31 0 4.62 0 7 0 C7 0.66 7 1.32 7 2 C3.86501708 3.85776765 1.62528568 4.20140476 -2 4 C-1.34 2.68 -0.68 1.36 0 0 Z " fill="#0E0E0E" transform="translate(214,318)"/>
<path d="M0 0 C2.97 0 5.94 0 9 0 C9 0.66 9 1.32 9 2 C5.78548731 3.60725635 2.56387464 3.05748185 -1 3 C-0.67 2.01 -0.34 1.02 0 0 Z " fill="#121212" transform="translate(292,300)"/>
<path d="M0 0 C-1.875 3.875 -1.875 3.875 -3 5 C-4.66617115 5.04063832 -6.33388095 5.042721 -8 5 C-5.96115496 0.48541456 -5.19128917 0 0 0 Z " fill="#151515" transform="translate(311,275)"/>
<path d="M0 0 C2.5 1.125 2.5 1.125 5 3 C5.3125 6.1875 5.3125 6.1875 5 9 C2.5 6.75 2.5 6.75 0 4 C0 2.68 0 1.36 0 0 Z " fill="#141414" transform="translate(297,252)"/>
<path d="M0 0 C2.97 0 5.94 0 9 0 C9 0.99 9 1.98 9 3 C2.25 3.125 2.25 3.125 0 2 C0 1.34 0 0.68 0 0 Z " fill="#0F0F0F" transform="translate(191,300)"/>
<path d="M0 0 C0.33 0 0.66 0 1 0 C1.05399736 1.45792884 1.09279177 2.91642712 1.125 4.375 C1.14820313 5.18710937 1.17140625 5.99921875 1.1953125 6.8359375 C1 9 1 9 -1 11 C-2.50662097 7.98675805 -2.17770373 5.31713623 -2 2 C-1.34 1.34 -0.68 0.68 0 0 Z " fill="#111111" transform="translate(206,291)"/>
<path d="M0 0 C1.27875 0.103125 2.5575 0.20625 3.875 0.3125 C4.95394531 0.39951172 4.95394531 0.39951172 6.0546875 0.48828125 C8 1 8 1 10 4 C6.6875 4.25 6.6875 4.25 3 4 C1.0625 2 1.0625 2 0 0 Z " fill="#171717" transform="translate(186,291)"/>
<path d="M0 0 C2.875 0.25 2.875 0.25 6 1 C7.375 3.0625 7.375 3.0625 8 5 C5.125 4.75 5.125 4.75 2 4 C0.625 1.9375 0.625 1.9375 0 0 Z " fill="#151515" transform="translate(181,275)"/>
<path d="M0 0 C0.66 0 1.32 0 2 0 C2.25 5.625 2.25 5.625 0 9 C-0.66 9 -1.32 9 -2 9 C-1.125 2.25 -1.125 2.25 0 0 Z " fill="#141414" transform="translate(261,311)"/>
<path d="M0 0 C-0.66 1.32 -1.32 2.64 -2 4 C-4.31 4 -6.62 4 -9 4 C-6.25137935 -0.12293098 -4.89482776 0 0 0 Z " fill="#141414" transform="translate(305,291)"/>
<path d="M0 0 C0.33 0 0.66 0 1 0 C1.29296875 6.0546875 1.29296875 6.0546875 1 8 C0.01 8.66 -0.98 9.32 -2 10 C-2.1953125 3.9453125 -2.1953125 3.9453125 -2 2 C-1.34 1.34 -0.68 0.68 0 0 Z " fill="#0A0A0A" transform="translate(279,299)"/>
<path d="M0 0 C0.33 0 0.66 0 1 0 C1.1953125 6.0546875 1.1953125 6.0546875 1 8 C0.34 8.66 -0.32 9.32 -1 10 C-2.38125018 7.23749964 -2.19079306 5.05268901 -2 2 C-1.34 1.34 -0.68 0.68 0 0 Z " fill="#0E0E0E" transform="translate(200,284)"/>
<path d="M0 0 C0.33 0 0.66 0 1 0 C1.36923077 6.52307692 1.36923077 6.52307692 -0.5 8.9375 C-0.995 9.288125 -1.49 9.63875 -2 10 C-2.1953125 3.9453125 -2.1953125 3.9453125 -2 2 C-1.34 1.34 -0.68 0.68 0 0 Z " fill="#0C0C0C" transform="translate(196,274)"/>
<path d="M0 0 C1.32 0.66 2.64 1.32 4 2 C3.34 3.32 2.68 4.64 2 6 C1.01 5.67 0.02 5.34 -1 5 C-0.67 3.35 -0.34 1.7 0 0 Z " fill="#9C9C9C" transform="translate(283,257)"/>
<path d="M0 0 C0 1.32 0 2.64 0 4 C-1.98 4 -3.96 4 -6 4 C-6 3.01 -6 2.02 -6 1 C-4 0 -4 0 0 0 Z " fill="#181818" transform="translate(271,227)"/>
<path d="M0 0 C2.475 0.495 2.475 0.495 5 1 C4.67 2.32 4.34 3.64 4 5 C2.68 4.67 1.36 4.34 0 4 C0 2.68 0 1.36 0 0 Z " fill="#999999" transform="translate(284,228)"/>
<path d="M0 0 C0.99 0.33 1.98 0.66 3 1 C3.33 3.31 3.66 5.62 4 8 C2 6.8125 2 6.8125 0 5 C-0.25 2.3125 -0.25 2.3125 0 0 Z " fill="#0D0D0D" transform="translate(297,264)"/>
<path d="M0 0 C1.98 0.495 1.98 0.495 4 1 C3.67 2.32 3.34 3.64 3 5 C1.68 4.67 0.36 4.34 -1 4 C-0.67 2.68 -0.34 1.36 0 0 Z " fill="#A3A3A3" transform="translate(206,258)"/>
<path d="M0 0 C2.4375 0.8125 2.4375 0.8125 5 2 C5.33 2.99 5.66 3.98 6 5 C4.02 5 2.04 5 0 5 C0 3.35 0 1.7 0 0 Z " fill="#141414" transform="translate(221,226)"/>
<path d="M0 0 C1.65 0 3.3 0 5 0 C4.01 0.495 4.01 0.495 3 1 C3 1.66 3 2.32 3 3 C2.34 3 1.68 3 1 3 C1 3.66 1 4.32 1 5 C0.01 4.67 -0.98 4.34 -2 4 C-1.34 2.68 -0.68 1.36 0 0 Z " fill="#1F1F1F" transform="translate(221,242)"/>
<path d="M0 0 C0.66 0 1.32 0 2 0 C1.75 2.375 1.75 2.375 1 5 C-1.0625 6.3125 -1.0625 6.3125 -3 7 C-1.125 2.25 -1.125 2.25 0 0 Z " fill="#303030" transform="translate(253,317)"/>
<path d="M0 0 C5.53846154 -0.36923077 5.53846154 -0.36923077 7.875 1.5 C8.24625 1.995 8.6175 2.49 9 3 C2.84765625 2.4140625 2.84765625 2.4140625 1 2 C0.67 1.34 0.34 0.68 0 0 Z " fill="#232323" transform="translate(183,284)"/>
</svg>
