<svg width="86" height="84" viewBox="0 0 86 84" fill="none" xmlns="http://www.w3.org/2000/svg">
<path d="M55.5 0.8125C30.5 0.8125 21.125 7.0625 21.125 24.25V32.0625V33.6616C20.4875 34.6663 19.5625 36.5609 19.5625 39.0938C19.5625 42.9703 21.912 45.6516 23.0354 46.7109C24.2792 49.9406 26.4473 53.0753 28.8551 55.8143L28.1654 65.8333L0.8125 74.25L1.50525 78.4034C2.00681 81.4159 4.61511 83.625 7.6698 83.625H78.3302C81.3849 83.625 83.9916 81.4159 84.4948 78.4034L85.1875 74.25L57.8346 65.8333L57.1449 55.8143C59.5527 53.0737 61.7208 49.9406 62.9646 46.7109C64.088 45.6516 66.4375 42.9703 66.4375 39.0938C66.4375 36.5609 65.5125 34.6663 64.875 33.6616V33.625V24.25C64.875 18.7812 63.3125 10.1875 58.625 10.1875L55.5 0.8125ZM75.1259 8.625C70.7977 8.625 67.0153 8.84326 63.7184 9.29639C66.8121 12.5308 68 18.7188 68 24.25V32.8285C68.7969 34.3129 69.5625 36.4375 69.5625 39.0938C69.5625 43.6406 67.1101 46.9062 65.6257 48.4688C64.4695 51.2188 62.7025 54.0482 60.3431 56.8763L60.7979 63.4834L76.9386 67.53L76.2184 57.9384C78.5934 55.3134 80.796 52.1886 81.9679 48.8136C81.9679 48.8136 85.0471 46.468 85.0471 42.6399C85.0471 39.7961 83.4999 38.0012 83.4999 38.0012V31.8123C83.4999 30.5935 83.4231 29.5167 83.3137 28.5011C83.2043 23.7042 81.7821 16.8281 77.8602 16.8281L75.1259 8.625ZM21.5614 9.26587C8.3114 11.0471 2.90576 16.7189 2.65576 28.2814C2.51514 29.422 2.43604 30.6091 2.43604 31.8123V38.0012C2.43604 38.0012 0.891846 39.7961 0.891846 42.6399C0.891846 46.468 3.98328 48.8136 3.98328 48.8136C5.15515 52.2042 7.37537 55.3588 9.78162 57.9994L9.07666 67.53L25.2021 63.4834L25.6569 56.8763C23.2975 54.0482 21.5305 51.2188 20.3743 48.4688C18.8899 46.9062 16.4375 43.6406 16.4375 39.0938C16.4375 36.4375 17.2031 34.3129 18 32.8285V24.25C18 17.9062 19.2489 13.0159 21.5614 9.26587ZM28.9375 18C28.9375 18 35.9688 19.5625 43 19.5625C50.0312 19.5625 55.5 18 55.5 18C59.2861 21.2453 60.0595 28.1631 60.1875 32.1571V34.4062L60.1967 34.7114C60.1927 34.7936 60.1875 35.1875 60.1875 35.1875L60.2089 35.1814L60.2119 35.2668L60.7338 35.9138C60.776 35.9654 61.75 37.1828 61.75 39.0938C61.75 41.7172 59.5605 43.4698 59.5527 43.4761L58.9882 43.9033L58.7532 44.5747C56.0079 52.4606 46.9258 59.1266 44.9196 60.1875H41.0774C39.0711 59.1266 29.9891 52.4606 27.2438 44.5747L27.0118 43.9033L26.4473 43.4761C26.427 43.4589 24.25 41.7359 24.25 39.0938C24.25 37.1828 25.2246 35.9648 25.2449 35.9382L25.8125 35.2791V29.9537C25.9812 25.7825 26.6444 20.2931 28.9375 18ZM33.2527 60.1997C36.5261 63.0575 39.5281 64.875 40.6562 64.875H45.3438C46.4719 64.875 49.4739 63.0575 52.7473 60.1997L53.6537 73.3558C52.0279 74.2724 48.5054 75.8125 43 75.8125C37.4946 75.8125 33.9721 74.2724 32.3463 73.3558L33.2527 60.1997Z" fill="black"/>
</svg>
