<svg width="93" height="90" viewBox="0 0 93 90" fill="none" xmlns="http://www.w3.org/2000/svg">
<path d="M24.6251 0C23.6719 0.179688 22.9844 1.02344 23.0001 2V38C23.0001 39.1016 23.8985 40 25.0001 40H43.3751C46.4063 40 49.2657 41.2031 51.4376 43.3125C51.4766 43.3516 51.5235 43.3984 51.5626 43.4375C51.6016 43.4844 51.6407 43.5234 51.6876 43.5625C51.711 43.5625 51.7266 43.5625 51.7501 43.5625C51.8829 43.6875 52.0313 43.7891 52.1876 43.875C52.211 43.875 52.2266 43.875 52.2501 43.875C52.2891 43.8984 52.336 43.9219 52.3751 43.9375C52.3985 43.9375 52.4141 43.9375 52.4376 43.9375C52.9376 44.0938 53.4766 44.0469 53.9376 43.8125C54.1251 43.7109 54.2891 43.5859 54.4376 43.4375C54.4844 43.3984 54.5235 43.3594 54.5626 43.3125C56.7344 41.2031 59.5938 40 62.6251 40H81.0001C82.1016 40 83.0001 39.1016 83.0001 38V2C83.0001 0.898438 82.1016 0 81.0001 0H59.0001C56.6016 0 54.4688 1.11719 53.0001 2.8125C51.5313 1.11719 49.3985 0 47.0001 0H25.0001C24.9376 0 24.8751 0 24.8126 0C24.7501 0 24.6876 0 24.6251 0ZM27.0001 4H47.0001C49.2344 4 51.0001 5.76563 51.0001 8V38.3125C48.6485 36.9609 46.1329 36 43.3751 36H27.0001V4ZM59.0001 4H79.0001V36H62.6251C59.8672 36 57.3516 36.9609 55.0001 38.3125V8C55.0001 5.76563 56.7657 4 59.0001 4ZM85.3126 49.9375C84.9532 49.9453 84.6094 50 84.2501 50.0625C83.2813 50.2188 82.3126 50.5703 81.4376 51.125L59.0001 65C57.7579 64.1484 56.3204 63.3984 54.7501 62.6875C51.7266 61.3203 42.1251 57.3359 34.8126 54.125C31.6876 52.75 28.3438 52.0312 25.0001 52C21.6563 51.9688 18.2813 52.625 15.1251 53.9375L2.25006 59.3125C1.51568 59.5312 0.976619 60.1406 0.843807 60.8906C0.718807 61.6406 1.02349 62.3984 1.64068 62.8516C2.25787 63.2969 3.07818 63.3516 3.75006 63L16.6876 57.625C21.9844 55.4141 27.9297 55.4453 33.1876 57.75C40.5704 60.9922 50.3672 65.0703 53.1251 66.3125C54.7188 67.0312 56.0391 67.7344 57.0001 68.4375C57.2422 68.8828 57.6485 69.2188 58.1251 69.375C58.7735 70.0625 59.0001 70.6797 59.0001 71.375C59.0001 72.9375 58.5626 73.2109 57.8751 73.5625C57.1876 73.9141 56.1407 74 55.4376 74C55.0235 74 53.1641 73.6719 51.1251 73.125C49.086 72.5781 46.6719 71.8672 44.3751 71.125C39.7813 69.6406 35.6876 68.125 35.6876 68.125C35.0079 67.8281 34.2188 67.9375 33.6407 68.4062C33.0626 68.8672 32.7891 69.6094 32.9297 70.3438C33.0704 71.0703 33.6016 71.6562 34.3126 71.875C34.3126 71.875 38.5157 73.3594 43.1876 74.875C45.5235 75.6328 47.9766 76.4219 50.1251 77C52.2735 77.5781 53.961 78 55.4376 78C56.3751 78 58.0469 77.9453 59.7501 77.0625C61.4532 76.1797 63.0001 74.1562 63.0001 71.375C63.0001 70.0703 62.5469 68.9141 61.8751 67.875L83.5626 54.5625C83.5626 54.5391 83.5626 54.5234 83.5626 54.5C85.2344 53.4453 87.3829 53.9531 88.4376 55.625C89.461 57.25 89.0157 59.3438 87.4376 60.4375L52.1251 84.5625C49.8907 86.0859 47.0079 86.3438 44.5001 85.3125L25.0001 77.3125C19.6172 75.0859 13.4454 75.8047 8.75006 79.25L1.81256 84.375C0.914119 85.0312 0.718807 86.2891 1.37506 87.1875C2.03131 88.0859 3.28912 88.2812 4.18756 87.625L11.1251 82.5C14.7032 79.875 19.3985 79.3047 23.5001 81L43.0001 89.0625C46.7422 90.6094 51.0313 90.1562 54.3751 87.875L89.7501 63.75C93.0626 61.4688 93.961 56.9062 91.8126 53.5C90.3594 51.2031 87.8516 49.9062 85.3126 49.9375Z" fill="black"/>
</svg>
